<svg xmlns="http://www.w3.org/2000/svg" version="1.1" xmlns:xlink="http://www.w3.org/1999/xlink" xmlns:svgjs="http://svgjs.dev/svgjs" width="298.92247542026234" height="273.5308590691143"><svg xmlns="http://www.w3.org/2000/svg" direction="ltr" width="298.92247542026234" height="273.5308590691143" viewBox="6994.980785802653 3892.895376313412 298.92247542026234 273.5308590691143" stroke-linecap="round" stroke-linejoin="round" style="background-color: rgb(249, 250, 251);"><defs></defs><g transform="matrix(1, 0, 0, 1, 7044.3667, 4121.5562)" opacity="1"><g transform="scale(1)"><path d="M-3.8317,0.441 T-4.0099,-2.2484 -4.4959,-10.7283 -4.9365,-23.1749 -6.6441,-48.8231 -9.3608,-81.93 -12.028,-109.5502 -14.9882,-133.8724 -17.5091,-152.9954 -19.1827,-166.3788 -19.5043,-174.4986 -17.9369,-179.8493 -2.1523,-183.5698 25.1136,-185.7887 52.1642,-187.8234 81.1995,-191.0474 104.3462,-194.129 117.5991,-195.8034 125.2974,-196.4998 131.3065,-195.1602 141.1664,-186.5956 153.4134,-173.6347 165.4206,-160.5621 177.8003,-146.4695 188.8093,-133.7474 196.9586,-124.1428 202.2445,-118.1782 205.8698,-114.4264 208.4954,-110.1568 210.2693,-102.8371 211.1063,-92.3737 211.5057,-80.3828 212.6202,-63.2973 214.4316,-44.4668 216.0318,-29.9335 217.5266,-17.4911 218.6493,-8.0334 219.3699,-2.0673 219.9207,2.2768 219.9585,7.4334 215.5781,12.4126 206.6162,14.3476 196.4907,14.1105 178.4809,13.3847 154.6687,12.6806 131.9321,12.2733 106.7183,12.3096 83.8452,12.8582 68.3337,13.4142 57.417,13.7108 49.9424,13.8998 44.774,14.3433 39.5537,15.1865 33.74,16.0032 28.3304,16.4646 22.9293,16.6657 18.0647,16.7249 16.1229,16.7136 A3.8436,3.8436 0 0 1 16.1171,9.0264 T18.0589,9.0122 22.9141,9.0615 28.272,9.2321 33.476,9.4961 39.034,9.6457 44.4186,9.4086 49.831,9.1414 57.2799,8.9792 68.1546,8.6304 83.7067,7.9999 106.7034,7.3483 132.0029,7.1733 154.7951,7.3918 178.6566,7.8379 196.4791,8.2125 206.0688,8.0031 212.5882,6.1919 214.6589,2.6778 214.5387,-1.5746 214.0259,-7.488 212.8814,-16.9252 211.3485,-29.4089 209.6966,-43.9978 207.8099,-63.0176 206.6025,-80.1948 206.1036,-91.9322 205.2892,-101.5495 202.9769,-109.0937 198.8159,-115.0779 193.4148,-121.1472 185.2884,-130.6963 174.2833,-143.3757 161.955,-157.3601 149.943,-170.3668 138.2888,-182.814 130.1143,-190.5697 125.5121,-191.7195 118.1973,-191.0992 104.984,-189.3727 81.7429,-186.2025 52.5479,-182.8547 25.4837,-180.6714 -0.8212,-178.3444 -14.6902,-174.4535 -14.3786,-166.9755 -12.6165,-153.6564 -9.9618,-134.507 -6.8113,-110.077 -3.8952,-82.4048 -0.8415,-49.1861 1.3105,-23.5589 2.3234,-11.4065 3.3943,-3.1005 3.8317,-0.441 A3.857,3.857 0 0 1 -3.8317,0.441 Z" stroke-linecap="round" fill="#1d1d1d"></path></g></g><g transform="matrix(1, 0, 0, 1, 7073.0004, 4010.347)" opacity="1"><g transform="scale(1)"><path d="M3.6137,0.227 T3.4501,2.4388 3.2775,7.0624 3.1556,12.5979 3.0884,19.2345 3.3119,25.4876 3.6506,30.6321 4.0876,36.3619 4.5426,42.0882 4.8472,46.8797 4.9725,49.2702 A3.7725,3.7725 0 0 1 -2.5725,49.3098 T-2.4722,46.9347 -2.2523,42.2007 -2.0583,36.5861 -2.0625,31.0015 -2.4043,25.8389 -2.9374,19.3981 -3.3892,12.7173 -3.7069,6.9242 -3.7282,1.989 -3.6137,-0.227 A3.6209,3.6209 0 0 1 3.6137,0.227 Z" stroke-linecap="round" fill="#1d1d1d"></path></g></g><g transform="matrix(1, 0, 0, 1, 7072.3985, 4014.0811)" opacity="1"><g transform="scale(1)"><path d="M-4.1525,-1.6763 T-3.5859,-3.0417 -1.9367,-6.0644 1.439,-9.7779 6.179,-12.9487 10.873,-14.4325 15.3126,-14.7044 19.9168,-13.344 23.7769,-10.0605 25.8748,-5.8375 26.7173,-1.5653 26.8003,2.7668 25.8985,7.3668 23.9696,11.3054 20.8531,14.5608 17.0098,17.4064 13.4959,19.499 10.0776,21.0425 6.2443,22.0995 0.9283,22.6596 -2.3226,22.8048 A4.8856,4.8856 0 0 1 -2.4974,13.0352 T-0.2784,13.0073 4.3092,12.5103 8.3935,11.2852 12.352,8.9844 15.9143,5.6033 17.2808,1.5919 16.9155,-2.9096 14.5334,-5.4255 10.7321,-5.0909 7.0587,-2.802 4.6848,0.3194 4.1525,1.6763 A4.478,4.478 0 0 1 -4.1525,-1.6763 ZM-0.8977,13.2743 T1.4977,14.1243 5.6603,16.8609 9.1196,20.8731 12.7159,25.9217 16.6907,32.339 20.3381,38.3475 23.068,42.5712 25.2963,46.106 27.8967,50.2284 30.4852,54.1082 32.2072,56.7599 32.8657,57.8289 A3.8841,3.8841 0 0 1 26.1143,61.6711 T25.5315,60.5589 24.0648,57.7175 21.905,53.5794 19.7098,49.4591 17.794,46.0912 14.9261,42.01 10.7983,36.499 6.5324,31.129 1.6193,26.0649 -2.6032,22.9249 -3.9223,22.5657 A4.8856,4.8856 0 0 1 -0.8977,13.2743 Z" stroke-linecap="round" fill="#1d1d1d"></path></g></g><g transform="matrix(1, 0, 0, 1, 7107.3112, 4029.0174)" opacity="1"><g transform="scale(1)"><path d="M-0.2729,4.5375 T-1.2331,4.3798 -2.9706,5.9981 -4.4651,10.0282 -5.5425,14.323 -4.4199,17.8873 -0.9416,19.8721 2.9873,20.2981 6.2943,18.4308 6.7571,14.2747 4.6609,9.6644 2.2264,5.9213 -1.0578,3.013 -3.0927,1.5617 A4.9008,4.9008 0 0 1 3.0927,-6.0417 T4.5895,-4.789 7.709,-2.1185 10.671,0.9932 13.2685,5.0975 15.6025,9.7885 17.0744,14.5337 17.3227,18.9874 15.7089,23.6028 12.238,27.62 8.3674,29.3776 4.1495,29.8741 -0.4968,29.7448 -5.3922,28.537 -10.1709,25.818 -13.5188,21.8514 -14.9778,17.2841 -14.7984,12.5808 -13.6137,7.8675 -11.6947,3.1922 -8.938,-0.8722 -5.6887,-3.6182 -1.8603,-4.5658 0.2729,-4.5375 A4.5457,4.5457 0 0 1 -0.2729,4.5375 Z" stroke-linecap="round" fill="#1d1d1d"></path></g></g><g transform="matrix(1, 0, 0, 1, 7131.3889, 4023.7897)" opacity="1"><g transform="scale(1)"><path d="M4.3161,0 T4.3085,1.5322 4.2798,6.1625 4.3985,11.8044 4.8849,16.8358 7.7131,19.8219 11.1366,18.4979 12.2094,14.576 12.1627,10.1741 11.5162,5.8712 10.6796,1.8028 10.0665,-1.5171 9.8212,-2.7691 A4.7177,4.7177 0 0 1 19.0588,-4.6909 T19.3331,-3.445 19.9647,-0.202 20.8601,4.0285 21.7075,9.0082 21.7005,14.445 20.5925,19.6289 18.5594,23.6954 15.9103,26.5603 12.1436,28.6288 7.178,29.2984 1.7279,27.5725 -2.2463,23.1013 -3.6796,17.7522 -4.1203,12.2579 -4.2798,6.1625 -4.3085,1.5322 -4.3161,0 A4.3161,4.3161 0 0 1 4.3161,0 Z" stroke-linecap="round" fill="#1d1d1d"></path></g></g><g transform="matrix(1, 0, 0, 1, 7172.923, 4017.8151)" opacity="1"><g transform="scale(1)"><path d="M-2.9363,3.3221 T-3.8989,2.4745 -4.9331,3.5236 -5.6737,7.4304 -6.5158,11.3694 -6.2592,15.9364 -5.0085,20.2578 -2.3647,23.9456 1.0529,27.0841 3.6981,26.4506 4.5907,22.0966 2.975,17.8809 1.5172,16.2517 A4.8574,4.8574 0 0 1 8.1228,9.1283 T10.4391,11.9931 13.3981,17.4317 14.1734,22.5427 14.1537,27.3915 12.9193,32.3859 9.9281,36.3865 5.8529,37.8285 1.7373,37.4433 -2.4484,35.6143 -6.763,32.5646 -10.485,28.632 -13.435,23.556 -15.3265,17.6961 -15.7549,12.404 -15.0097,7.1956 -13.4414,1.9915 -10.3314,-3.2545 -6.3983,-6.7188 -1.7912,-6.1337 1.9746,-4.1753 2.9363,-3.3221 A4.4337,4.4337 0 0 1 -2.9363,3.3221 Z" stroke-linecap="round" fill="#1d1d1d"></path></g></g><g transform="matrix(1, 0, 0, 1, 7190.3793, 4017.0683)" opacity="1"><g transform="scale(1)"><path d="M3.5807,-0.7221 T4.0065,2.0274 4.9402,7.2501 6.1564,12.5528 7.595,17.8012 8.9378,22.0437 10.4916,26.453 12.3007,31.5437 13.1687,34.0488 A3.6915,3.6915 0 0 1 6.0913,36.1512 T5.4721,33.6499 4.1864,28.4017 3.0471,23.8164 1.8206,19.5425 0.0534,14.1483 -1.5972,8.6555 -2.9075,3.4218 -3.5807,0.7221 A3.6528,3.6528 0 0 1 3.5807,-0.7221 Z" stroke-linecap="round" fill="#1d1d1d"></path></g></g><g transform="matrix(1, 0, 0, 1, 7198.2046, 4030.511)" opacity="1"><g transform="scale(1)"><path d="M0.6537,-4.2247 T2.8362,-3.8 6.9633,-2.9788 11.0324,-2.3652 15.9334,-2.1339 19.9262,-2.1125 21.1423,-2.1052 A4.3458,4.3458 0 0 1 20.9977,6.5852 T19.782,6.552 16.608,6.4159 12.3995,6.0702 6.9566,5.2808 1.5551,4.4794 -0.6537,4.2247 A4.2749,4.2749 0 0 1 0.6537,-4.2247 Z" stroke-linecap="round" fill="#1d1d1d"></path></g></g><g transform="matrix(1, 0, 0, 1, 7220.4765, 4017.0683)" opacity="1"><g transform="scale(1)"><path d="M-3.7664,0.6259 T-4.1953,-1.4625 -4.6242,-3.5509 A3.9796,3.9796 0 0 1 3.2272,-4.8557 T3.4968,-2.7408 3.7664,-0.6259 A3.8181,3.8181 0 0 1 -3.7664,0.6259 ZM-1.66,-0.3416 T-1.9184,-0.3847 -2.1768,-0.4278 A4.0207,4.0207 0 0 1 -0.2339,-8.2311 T0.0145,-8.148 0.263,-8.0649 A3.9796,3.9796 0 0 1 -1.66,-0.3416 ZM2.6682,-3.2517 T2.429,-2.2566 1.572,3.5891 0.7016,11.7898 0.2757,18.1593 0.0155,24.0133 -0.0344,29.0714 0.1582,34.4623 0.4512,39.7871 0.6372,43.379 0.6858,44.8137 A3.6958,3.6958 0 0 1 -6.7058,44.8063 T-6.6543,43.3717 -6.4587,39.7743 -6.136,34.4349 -5.8932,29.0277 -5.8658,23.9424 -5.9837,18.0324 -6.148,11.5448 -6.2742,4.477 -6.0083,-1.3036 -5.3891,-4.4281 -5.0789,-5.4073 A4.0207,4.0207 0 0 1 2.6682,-3.2517 Z" stroke-linecap="round" fill="#1d1d1d"></path></g></g><g transform="matrix(1, 0, 0, 1, 7072.3985, 4014.0811)" opacity="1"><g transform="scale(1)"><path d="M-4.1525,-1.6763 T-3.5859,-3.0417 -1.9367,-6.0644 1.439,-9.7779 6.179,-12.9487 10.873,-14.4325 15.3126,-14.7044 19.9168,-13.344 23.7769,-10.0605 25.8748,-5.8375 26.7173,-1.5653 26.8003,2.7668 25.8985,7.3668 23.9696,11.3054 20.8531,14.5608 17.0098,17.4064 13.4959,19.499 10.0776,21.0425 6.2443,22.0995 0.9283,22.6596 -2.3226,22.8048 A4.8856,4.8856 0 0 1 -2.4974,13.0352 T-0.2784,13.0073 4.3092,12.5103 8.3935,11.2852 12.352,8.9844 15.9143,5.6033 17.2808,1.5919 16.9155,-2.9096 14.5334,-5.4255 10.7321,-5.0909 7.0587,-2.802 4.6848,0.3194 4.1525,1.6763 A4.478,4.478 0 0 1 -4.1525,-1.6763 ZM-0.8977,13.2743 T1.4977,14.1243 5.6603,16.8609 9.1196,20.8731 12.7159,25.9217 16.6907,32.339 20.3381,38.3475 23.068,42.5712 25.2963,46.106 27.8967,50.2284 30.4852,54.1082 32.2072,56.7599 32.8657,57.8289 A3.8841,3.8841 0 0 1 26.1143,61.6711 T25.5315,60.5589 24.0648,57.7175 21.905,53.5794 19.7098,49.4591 17.794,46.0912 14.9261,42.01 10.7983,36.499 6.5324,31.129 1.6193,26.0649 -2.6032,22.9249 -3.9223,22.5657 A4.8856,4.8856 0 0 1 -0.8977,13.2743 Z" stroke-linecap="round" fill="#1d1d1d"></path></g></g><g transform="matrix(1, 0, 0, 1, 7107.3112, 4029.0174)" opacity="1"><g transform="scale(1)"><path d="M-0.2729,4.5375 T-1.2331,4.3798 -2.9706,5.9981 -4.4651,10.0282 -5.5425,14.323 -4.4199,17.8873 -0.9416,19.8721 2.9873,20.2981 6.2943,18.4308 6.7571,14.2747 4.6609,9.6644 2.2264,5.9213 -1.0578,3.013 -3.0927,1.5617 A4.9008,4.9008 0 0 1 3.0927,-6.0417 T4.5895,-4.789 7.709,-2.1185 10.671,0.9932 13.2685,5.0975 15.6025,9.7885 17.0744,14.5337 17.3227,18.9874 15.7089,23.6028 12.238,27.62 8.3674,29.3776 4.1495,29.8741 -0.4968,29.7448 -5.3922,28.537 -10.1709,25.818 -13.5188,21.8514 -14.9778,17.2841 -14.7984,12.5808 -13.6137,7.8675 -11.6947,3.1922 -8.938,-0.8722 -5.6887,-3.6182 -1.8603,-4.5658 0.2729,-4.5375 A4.5457,4.5457 0 0 1 -0.2729,4.5375 Z" stroke-linecap="round" fill="#1d1d1d"></path></g></g><g transform="matrix(1, 0, 0, 1, 7131.3889, 4023.7897)" opacity="1"><g transform="scale(1)"><path d="M4.3161,0 T4.3085,1.5322 4.2798,6.1625 4.3985,11.8044 4.8849,16.8358 7.7131,19.8219 11.1366,18.4979 12.2094,14.576 12.1627,10.1741 11.5162,5.8712 10.6796,1.8028 10.0665,-1.5171 9.8212,-2.7691 A4.7177,4.7177 0 0 1 19.0588,-4.6909 T19.3331,-3.445 19.9647,-0.202 20.8601,4.0285 21.7075,9.0082 21.7005,14.445 20.5925,19.6289 18.5594,23.6954 15.9103,26.5603 12.1436,28.6288 7.178,29.2984 1.7279,27.5725 -2.2463,23.1013 -3.6796,17.7522 -4.1203,12.2579 -4.2798,6.1625 -4.3085,1.5322 -4.3161,0 A4.3161,4.3161 0 0 1 4.3161,0 Z" stroke-linecap="round" fill="#1d1d1d"></path></g></g><g transform="matrix(1, 0, 0, 1, 7172.923, 4017.8151)" opacity="1"><g transform="scale(1)"><path d="M-2.9363,3.3221 T-3.8989,2.4745 -4.9331,3.5236 -5.6737,7.4304 -6.5158,11.3694 -6.2592,15.9364 -5.0085,20.2578 -2.3647,23.9456 1.0529,27.0841 3.6981,26.4506 4.5907,22.0966 2.975,17.8809 1.5172,16.2517 A4.8574,4.8574 0 0 1 8.1228,9.1283 T10.4391,11.9931 13.3981,17.4317 14.1734,22.5427 14.1537,27.3915 12.9193,32.3859 9.9281,36.3865 5.8529,37.8285 1.7373,37.4433 -2.4484,35.6143 -6.763,32.5646 -10.485,28.632 -13.435,23.556 -15.3265,17.6961 -15.7549,12.404 -15.0097,7.1956 -13.4414,1.9915 -10.3314,-3.2545 -6.3983,-6.7188 -1.7912,-6.1337 1.9746,-4.1753 2.9363,-3.3221 A4.4337,4.4337 0 0 1 -2.9363,3.3221 Z" stroke-linecap="round" fill="#1d1d1d"></path></g></g><g transform="matrix(1, 0, 0, 1, 7190.3793, 4017.0683)" opacity="1"><g transform="scale(1)"><path d="M3.5807,-0.7221 T4.0065,2.0274 4.9402,7.2501 6.1564,12.5528 7.595,17.8012 8.9378,22.0437 10.4916,26.453 12.3007,31.5437 13.1687,34.0488 A3.6915,3.6915 0 0 1 6.0913,36.1512 T5.4721,33.6499 4.1864,28.4017 3.0471,23.8164 1.8206,19.5425 0.0534,14.1483 -1.5972,8.6555 -2.9075,3.4218 -3.5807,0.7221 A3.6528,3.6528 0 0 1 3.5807,-0.7221 Z" stroke-linecap="round" fill="#1d1d1d"></path></g></g><g transform="matrix(1, 0, 0, 1, 7198.2046, 4030.511)" opacity="1"><g transform="scale(1)"><path d="M0.6537,-4.2247 T2.8362,-3.8 6.9633,-2.9788 11.0324,-2.3652 15.9334,-2.1339 19.9262,-2.1125 21.1423,-2.1052 A4.3458,4.3458 0 0 1 20.9977,6.5852 T19.782,6.552 16.608,6.4159 12.3995,6.0702 6.9566,5.2808 1.5551,4.4794 -0.6537,4.2247 A4.2749,4.2749 0 0 1 0.6537,-4.2247 Z" stroke-linecap="round" fill="#1d1d1d"></path></g></g><g transform="matrix(1, 0, 0, 1, 7220.4765, 4017.0683)" opacity="1"><g transform="scale(1)"><path d="M-3.7664,0.6259 T-4.1953,-1.4625 -4.6242,-3.5509 A3.9796,3.9796 0 0 1 3.2272,-4.8557 T3.4968,-2.7408 3.7664,-0.6259 A3.8181,3.8181 0 0 1 -3.7664,0.6259 ZM-1.66,-0.3416 T-1.9184,-0.3847 -2.1768,-0.4278 A4.0207,4.0207 0 0 1 -0.2339,-8.2311 T0.0145,-8.148 0.263,-8.0649 A3.9796,3.9796 0 0 1 -1.66,-0.3416 ZM2.6682,-3.2517 T2.429,-2.2566 1.572,3.5891 0.7016,11.7898 0.2757,18.1593 0.0155,24.0133 -0.0344,29.0714 0.1582,34.4623 0.4512,39.7871 0.6372,43.379 0.6858,44.8137 A3.6958,3.6958 0 0 1 -6.7058,44.8063 T-6.6543,43.3717 -6.4587,39.7743 -6.136,34.4349 -5.8932,29.0277 -5.8658,23.9424 -5.9837,18.0324 -6.148,11.5448 -6.2742,4.477 -6.0083,-1.3036 -5.3891,-4.4281 -5.0789,-5.4073 A4.0207,4.0207 0 0 1 2.6682,-3.2517 Z" stroke-linecap="round" fill="#1d1d1d"></path></g></g><g transform="matrix(1, 0, 0, 1, 7185.223, 3927.4754)" opacity="1"><g transform="scale(1)"><path d="M0,0 Q6.1925,-0.3922 9.0374,-0.4988 T17.6889,-0.6635 28.2002,-0.9492 37.0146,-1.3007 45.6788,-1.688 55.6666,-2.2657 L61.1,-2.58 " stroke-linecap="round" fill="none" stroke="#1d1d1d" stroke-width="6" stroke-dasharray="0.1 12" stroke-dashoffset="0"></path></g></g><g transform="matrix(1, 0, 0, 1, 7250.1618, 3997.9887)" opacity="1"><g transform="scale(1)"><path d="M0,0 Q-0.1505,-3.3014 -0.1914,-4.7512 T-0.2546,-7.3567 -0.289,-9.6906 -0.3852,-12.9804 -0.5151,-16.7878 -0.661,-20.1427 -0.8908,-24.7243 -1.1686,-29.9686 -1.3972,-34.47 -1.5216,-38.7541 -1.742,-42.7354 -2.0147,-46.1849 -2.2383,-50.2638 -2.4351,-54.3159 -2.5422,-57.0743 -2.6757,-59.4937 -2.8236,-61.5417 -2.904,-63.0229 -2.9478,-64.1935 -2.9716,-65.1974 -2.9846,-66.2975 -2.9916,-67.8149 -2.997,-69.7677 L-3,-70.83 " stroke-linecap="round" fill="none" stroke="#1d1d1d" stroke-width="6" stroke-dasharray="0.1 12" stroke-dashoffset="0"></path></g></g></svg><style>@media (prefers-color-scheme: dark) { path { fill: white; stroke: white; } }</style></svg>